<mxfile host="app.diagrams.net" modified="2022-02-23T05:19:46.034Z" agent="5.0 (Windows NT 10.0; Win64; x64) AppleWebKit/537.36 (KHTML, like Gecko) Chrome/98.0.4758.102 Safari/537.36" etag="4IYsxNnuMXc92KtcYPXn" version="16.6.2" type="github">
  <diagram id="n3ylsR31DIIBl8LECY_b" name="Page-1">
    <mxGraphModel dx="1422" dy="786" grid="1" gridSize="10" guides="1" tooltips="1" connect="1" arrows="1" fold="1" page="1" pageScale="1" pageWidth="850" pageHeight="1100" math="0" shadow="0">
      <root>
        <mxCell id="0" />
        <mxCell id="1" parent="0" />
        <mxCell id="BU1Sw6ynRWNjTj_LjlDa-1" value="Buyer&amp;nbsp;" style="rounded=0;whiteSpace=wrap;html=1;" vertex="1" parent="1">
          <mxGeometry x="50" y="90" width="120" height="60" as="geometry" />
        </mxCell>
        <mxCell id="BU1Sw6ynRWNjTj_LjlDa-2" value="Agent" style="rounded=0;whiteSpace=wrap;html=1;" vertex="1" parent="1">
          <mxGeometry x="380" y="90" width="120" height="60" as="geometry" />
        </mxCell>
        <mxCell id="BU1Sw6ynRWNjTj_LjlDa-6" value="" style="edgeStyle=entityRelationEdgeStyle;fontSize=12;html=1;endArrow=ERoneToMany;startArrow=ERmandOne;rounded=0;entryX=0;entryY=0.5;entryDx=0;entryDy=0;" edge="1" parent="1" target="BU1Sw6ynRWNjTj_LjlDa-2">
          <mxGeometry width="100" height="100" relative="1" as="geometry">
            <mxPoint x="170" y="120" as="sourcePoint" />
            <mxPoint x="270" y="20" as="targetPoint" />
          </mxGeometry>
        </mxCell>
        <mxCell id="BU1Sw6ynRWNjTj_LjlDa-3" value="Buyer Request" style="rhombus;whiteSpace=wrap;html=1;" vertex="1" parent="1">
          <mxGeometry x="210" y="80" width="130" height="80" as="geometry" />
        </mxCell>
        <mxCell id="BU1Sw6ynRWNjTj_LjlDa-7" value="" style="edgeStyle=elbowEdgeStyle;fontSize=12;html=1;endArrow=ERoneToMany;startArrow=ERoneToMany;rounded=0;entryX=0;entryY=0;entryDx=0;entryDy=0;exitX=1;exitY=0;exitDx=0;exitDy=0;elbow=vertical;" edge="1" parent="1" source="BU1Sw6ynRWNjTj_LjlDa-1" target="BU1Sw6ynRWNjTj_LjlDa-2">
          <mxGeometry width="100" height="100" relative="1" as="geometry">
            <mxPoint x="290" y="80" as="sourcePoint" />
            <mxPoint x="390" y="-20" as="targetPoint" />
            <Array as="points">
              <mxPoint x="280" y="30" />
              <mxPoint x="280" y="50" />
            </Array>
          </mxGeometry>
        </mxCell>
        <mxCell id="BU1Sw6ynRWNjTj_LjlDa-8" value="Real Estate Listings" style="shape=rhombus;perimeter=rhombusPerimeter;whiteSpace=wrap;html=1;align=center;" vertex="1" parent="1">
          <mxGeometry x="210" width="120" height="60" as="geometry" />
        </mxCell>
        <mxCell id="BU1Sw6ynRWNjTj_LjlDa-11" value="Seller" style="whiteSpace=wrap;html=1;align=center;" vertex="1" parent="1">
          <mxGeometry x="60" y="290" width="100" height="40" as="geometry" />
        </mxCell>
        <mxCell id="BU1Sw6ynRWNjTj_LjlDa-12" value="" style="fontSize=12;html=1;endArrow=ERmandOne;startArrow=ERmandOne;rounded=0;elbow=vertical;exitX=0.5;exitY=0;exitDx=0;exitDy=0;entryX=0.5;entryY=1;entryDx=0;entryDy=0;" edge="1" parent="1" source="BU1Sw6ynRWNjTj_LjlDa-11" target="BU1Sw6ynRWNjTj_LjlDa-1">
          <mxGeometry width="100" height="100" relative="1" as="geometry">
            <mxPoint x="80" y="380" as="sourcePoint" />
            <mxPoint x="120" y="150" as="targetPoint" />
          </mxGeometry>
        </mxCell>
        <mxCell id="BU1Sw6ynRWNjTj_LjlDa-10" value="Offer" style="shape=rhombus;perimeter=rhombusPerimeter;whiteSpace=wrap;html=1;align=center;" vertex="1" parent="1">
          <mxGeometry x="50" y="180" width="120" height="60" as="geometry" />
        </mxCell>
        <mxCell id="BU1Sw6ynRWNjTj_LjlDa-13" value="" style="edgeStyle=entityRelationEdgeStyle;fontSize=12;html=1;endArrow=ERmandOne;rounded=0;elbow=vertical;exitX=1;exitY=0.5;exitDx=0;exitDy=0;entryX=0;entryY=0.75;entryDx=0;entryDy=0;" edge="1" parent="1" source="BU1Sw6ynRWNjTj_LjlDa-10" target="BU1Sw6ynRWNjTj_LjlDa-2">
          <mxGeometry width="100" height="100" relative="1" as="geometry">
            <mxPoint x="320" y="330" as="sourcePoint" />
            <mxPoint x="420" y="230" as="targetPoint" />
          </mxGeometry>
        </mxCell>
        <mxCell id="BU1Sw6ynRWNjTj_LjlDa-16" value="" style="fontSize=12;html=1;endArrow=ERmandOne;rounded=0;elbow=vertical;" edge="1" parent="1" source="BU1Sw6ynRWNjTj_LjlDa-10">
          <mxGeometry width="100" height="100" relative="1" as="geometry">
            <mxPoint x="320" y="330" as="sourcePoint" />
            <mxPoint x="250" y="270" as="targetPoint" />
          </mxGeometry>
        </mxCell>
        <mxCell id="BU1Sw6ynRWNjTj_LjlDa-17" value="Purchase Agreement" style="whiteSpace=wrap;html=1;align=center;" vertex="1" parent="1">
          <mxGeometry x="250" y="250" width="100" height="40" as="geometry" />
        </mxCell>
        <mxCell id="BU1Sw6ynRWNjTj_LjlDa-19" value="Appraiser" style="rounded=0;whiteSpace=wrap;html=1;" vertex="1" parent="1">
          <mxGeometry x="380" y="260" width="120" height="60" as="geometry" />
        </mxCell>
        <mxCell id="BU1Sw6ynRWNjTj_LjlDa-21" value="Finance Company" style="rounded=0;whiteSpace=wrap;html=1;" vertex="1" parent="1">
          <mxGeometry x="710" y="90" width="120" height="60" as="geometry" />
        </mxCell>
        <mxCell id="BU1Sw6ynRWNjTj_LjlDa-22" value="" style="fontSize=12;html=1;endArrow=ERmandOne;startArrow=ERmandOne;rounded=0;elbow=vertical;exitX=1;exitY=0.5;exitDx=0;exitDy=0;entryX=0;entryY=0.5;entryDx=0;entryDy=0;" edge="1" parent="1" source="BU1Sw6ynRWNjTj_LjlDa-2" target="BU1Sw6ynRWNjTj_LjlDa-21">
          <mxGeometry width="100" height="100" relative="1" as="geometry">
            <mxPoint x="610" y="210" as="sourcePoint" />
            <mxPoint x="710" y="110" as="targetPoint" />
          </mxGeometry>
        </mxCell>
        <mxCell id="BU1Sw6ynRWNjTj_LjlDa-20" value="Financing Application" style="shape=rhombus;perimeter=rhombusPerimeter;whiteSpace=wrap;html=1;align=center;" vertex="1" parent="1">
          <mxGeometry x="540" y="90" width="140" height="60" as="geometry" />
        </mxCell>
        <mxCell id="BU1Sw6ynRWNjTj_LjlDa-23" value="" style="fontSize=12;html=1;endArrow=ERmandOne;startArrow=ERmandOne;rounded=0;elbow=vertical;entryX=0.5;entryY=1;entryDx=0;entryDy=0;exitX=0.5;exitY=0;exitDx=0;exitDy=0;" edge="1" parent="1" source="BU1Sw6ynRWNjTj_LjlDa-19" target="BU1Sw6ynRWNjTj_LjlDa-2">
          <mxGeometry width="100" height="100" relative="1" as="geometry">
            <mxPoint x="220" y="520" as="sourcePoint" />
            <mxPoint x="320" y="420" as="targetPoint" />
          </mxGeometry>
        </mxCell>
        <mxCell id="BU1Sw6ynRWNjTj_LjlDa-18" value="Appraisal Request&amp;nbsp;" style="shape=rhombus;perimeter=rhombusPerimeter;whiteSpace=wrap;html=1;align=center;" vertex="1" parent="1">
          <mxGeometry x="380" y="170" width="130" height="60" as="geometry" />
        </mxCell>
        <mxCell id="BU1Sw6ynRWNjTj_LjlDa-26" value="" style="edgeStyle=entityRelationEdgeStyle;fontSize=12;html=1;endArrow=ERoneToMany;startArrow=ERmandOne;rounded=0;elbow=vertical;" edge="1" parent="1">
          <mxGeometry width="100" height="100" relative="1" as="geometry">
            <mxPoint x="160" y="310" as="sourcePoint" />
            <mxPoint x="380" y="150" as="targetPoint" />
          </mxGeometry>
        </mxCell>
        <mxCell id="BU1Sw6ynRWNjTj_LjlDa-24" value="Contact" style="shape=rhombus;perimeter=rhombusPerimeter;whiteSpace=wrap;html=1;align=center;" vertex="1" parent="1">
          <mxGeometry x="240" y="180" width="120" height="60" as="geometry" />
        </mxCell>
      </root>
    </mxGraphModel>
  </diagram>
</mxfile>
